<svg width="595" height="594" viewBox="0 0 595 594" fill="none" xmlns="http://www.w3.org/2000/svg">
<path fill-rule="evenodd" clip-rule="evenodd" d="M13.2343 252.68C13.5343 251.153 14.1976 247.387 15.2243 241.38C17.1243 230.3 20.2909 218.387 24.7243 205.64C30.2243 189.813 35.9876 176.313 42.0143 165.14C73.3843 107.02 123.774 59.8399 186.464 33.1599C216.694 20.2999 251.474 12.0999 287.454 10.2099C299.414 9.58987 312.034 10.4199 323.964 11.6999C344.914 13.9399 363.704 17.3199 385.174 24.4299C401.864 29.9499 418.314 36.6099 433.684 45.2099C469.544 65.2599 502.234 93.3799 527.214 125.85C548.914 154.05 563.784 185.49 573.804 219.86C577.324 231.947 579.838 243.593 581.344 254.8C581.498 256.12 581.678 257.417 581.884 258.69C582.304 261.24 582.214 263.95 582.664 266.61C582.951 268.243 583.114 269.573 583.154 270.6C583.734 284.78 584.844 296.77 583.394 312.63C583.281 313.83 583.201 315.697 583.154 318.23C583.094 321.03 582.324 323.91 582.184 326.87C582.124 328.17 581.934 329.623 581.614 331.23C581.214 333.19 581.224 335.35 580.954 337.09C578.714 351.203 576.464 362.55 574.204 371.13C559.714 426 528.004 475.87 484.614 512.18C471.134 523.46 458.351 532.793 446.264 540.18C414.154 559.79 376.184 574.25 338.694 579.57C335.584 580.01 331.944 580.76 327.794 581.15C325.354 581.38 323.024 581.99 320.654 582.12C315.924 582.37 311.284 583.18 306.704 583.16C299.511 583.12 292.318 583.113 285.124 583.14C281.274 583.15 277.414 582.45 273.474 582.17C269.524 581.89 264.714 581.32 260.624 580.62C237.474 576.64 214.644 571.29 192.894 562.23C165.214 550.7 142.434 537.67 116.684 517.63C93.6376 499.69 74.0343 478.553 57.8743 454.22C38.6143 425.22 24.1942 392.47 16.9942 358.38C14.3142 345.673 12.4709 332.837 11.4642 319.87C10.5342 307.91 9.51425 295.61 10.2542 286.63C10.7476 280.61 11.0909 274.58 11.2842 268.54C11.3742 265.82 12.1343 262.9 12.2243 259.97C12.2943 257.47 13.1743 255.21 13.2343 252.68ZM320.014 286.68C323.994 278.79 333.144 280.49 340.654 280.31C377.014 280.25 413.364 280.277 449.704 280.39C453.714 280.41 464.804 279.4 467.104 283.08C467.718 284.053 468.028 285.487 468.034 287.38C468.061 292.827 468.071 298.273 468.064 303.72C468.044 309.25 466.214 311.36 460.704 311.36C424.704 311.333 388.591 311.343 352.364 311.39C352.065 311.39 351.769 311.449 351.492 311.565C351.216 311.68 350.966 311.849 350.755 312.062C350.545 312.275 350.379 312.528 350.268 312.806C350.156 313.083 350.1 313.381 350.104 313.68C350.231 323.107 350.241 332.673 350.134 342.38C350.041 351.307 349.501 357.933 348.514 362.26C344.694 378.92 333.614 393.65 317.954 400.69C306.401 405.897 294.091 406.547 281.024 402.64C273.464 400.38 266.321 395.99 259.594 389.47C248.874 379.07 244.284 365.3 244.224 350.54C244.178 338.3 244.171 326.28 244.204 314.48C244.206 314.047 244.122 313.619 243.957 313.219C243.793 312.82 243.551 312.456 243.246 312.151C242.942 311.845 242.58 311.602 242.181 311.438C241.782 311.273 241.355 311.189 240.924 311.19C204.278 311.223 167.788 311.293 131.454 311.4C129.321 311.4 127.561 310.363 126.174 308.29C125.961 307.97 125.854 307.62 125.854 307.24L126.014 284.26C126.014 284.007 126.094 283.777 126.254 283.57C127.881 281.523 129.308 280.49 130.534 280.47C136.828 280.377 143.121 280.347 149.414 280.38C187.261 280.3 225.104 280.257 262.944 280.25C267.884 280.25 275.094 284.39 275.214 290.21C275.634 309.97 275.514 329.72 275.494 349.48C275.488 353.033 275.771 355.77 276.344 357.69C278.504 364.9 284.314 371.49 291.714 373.09C302.414 375.4 312.924 370.16 316.964 360.06C317.818 357.927 318.254 355.083 318.274 351.53C318.368 333.79 318.424 316.053 318.444 298.32C318.451 292.627 318.974 288.747 320.014 286.68ZM78.4543 271.38C84.1009 270.54 89.5943 271.527 94.9343 274.34C96.6209 275.32 98.3842 276.57 100.224 278.09C108.114 284.63 111.414 294.57 107.714 304.25C105.704 309.52 102.084 314.86 97.0843 317.74C84.6243 324.927 73.6376 323.503 64.1243 313.47C50.0243 298.6 59.1843 274.93 78.4543 271.38ZM501.214 217.97C501.054 217.11 500.534 216.77 500.184 216.13C499.999 215.796 499.737 215.511 499.418 215.299C499.1 215.088 498.736 214.957 498.357 214.916C497.978 214.876 497.595 214.928 497.241 215.068C496.887 215.208 496.573 215.432 496.324 215.72C486.144 227.49 475.564 238.01 460.704 244.54C447.584 250.31 431.554 250.67 417.744 245.47C403.134 239.97 388.344 224.79 383.554 209.79C380.414 199.93 382.904 190.43 392.924 185.95C400.784 182.44 410.684 188.02 414.034 195.21C415.494 198.35 415.954 203.39 419.014 207.31C425.041 215.07 433.104 218.357 443.204 217.17C449.924 216.38 456.534 211.83 461.354 207.28C468.994 200.04 474.664 194.61 478.714 189.15C479.708 187.81 480.271 186.483 480.404 185.17C480.804 181.39 479.724 178.217 477.164 175.65C470.011 168.47 462.834 161.317 455.634 154.19C454.484 153.06 451.564 152.64 449.644 152.63C442.511 152.59 435.381 152.497 428.254 152.35C421.434 152.203 416.478 151.57 413.384 150.45C403.814 146.99 396.144 137.9 396.224 126.97C396.254 122.42 397.144 113.85 394.934 110.15C393.084 107.06 390.634 106.17 386.904 106.18C375.438 106.227 364.184 106.243 353.144 106.23C352.748 106.229 352.355 106.305 351.988 106.456C351.621 106.606 351.287 106.828 351.006 107.107C350.724 107.387 350.501 107.719 350.348 108.085C350.195 108.451 350.116 108.843 350.114 109.24C350.088 118.507 350.028 127.3 349.934 135.62C349.868 141.86 348.084 148.41 344.584 155.27C335.254 173.55 317.834 185.45 297.224 185.36C272.844 185.24 251.744 169.59 245.664 145.81C244.684 141.983 244.198 135.987 244.204 127.82C244.211 106.34 244.274 84.8599 244.394 63.3799C244.434 55.9465 247.884 50.9999 254.744 48.5399C262.294 45.8399 270.194 48.7399 274.044 55.6799C274.858 57.1399 275.278 59.0332 275.304 61.3599C275.551 82.3266 275.601 103.293 275.454 124.26C275.394 131.853 275.864 137.047 276.864 139.84C279.664 147.66 286.424 152.82 295.084 153.9C306.804 155.36 318.514 145.85 318.434 133.63C318.194 99.1499 318.231 75.0665 318.544 61.3799C318.618 58.0999 319.721 55.2299 321.854 52.7699C328.864 44.6799 341.734 45.7599 347.624 54.6799C348.618 56.1865 349.184 58.1599 349.324 60.5999C349.538 64.5265 349.568 68.3399 349.414 72.0399C349.402 72.3162 349.446 72.592 349.543 72.8511C349.641 73.1101 349.79 73.3471 349.981 73.5477C350.172 73.7484 350.402 73.9086 350.657 74.0189C350.912 74.1293 351.186 74.1874 351.464 74.1899C363.504 74.2965 375.331 74.3599 386.944 74.3799C389.804 74.3899 394.564 74.6999 397.434 75.4999C410.794 79.2199 422.634 88.6599 426.544 102.24C427.814 106.64 427.214 112.11 427.264 116.72C427.28 117.892 427.759 119.011 428.596 119.831C429.434 120.652 430.562 121.108 431.734 121.1C440.088 121.027 448.588 121.047 457.234 121.16C459.594 121.187 461.628 121.593 463.334 122.38C465.834 123.54 468.154 125.01 470.294 126.79C495.304 147.65 515.334 173.71 526.464 203.87C530.098 213.723 532.691 224.727 534.244 236.88C534.518 238.98 534.134 240.64 533.094 241.86C532.368 242.72 531.131 243.15 529.384 243.15C521.198 243.15 513.314 243.143 505.734 243.13C505.267 243.13 504.804 243.037 504.373 242.857C503.941 242.677 503.55 242.412 503.22 242.08C502.891 241.747 502.631 241.352 502.455 240.918C502.279 240.483 502.19 240.019 502.194 239.55C502.264 232.47 502.504 225.14 501.214 217.97ZM170.424 96.2599C173.658 90.0332 178.474 84.8799 184.874 80.7999C189.348 77.9532 193.958 76.0266 198.704 75.0199C203.964 73.9099 210.864 74.3099 216.824 74.2699C221.224 74.2499 225.004 76.0899 225.084 80.8599C225.244 90.2932 225.191 96.7165 224.924 100.13C223.734 115.41 198.214 96.1099 198.004 116.36C197.971 120.06 197.874 123.757 197.714 127.45C197.401 134.95 194.664 141.11 189.504 145.93C185.054 150.09 175.524 154.64 169.174 152.63C168.128 152.303 167.091 151.98 166.064 151.66C162.504 150.56 159.994 148.537 158.534 145.59C156.894 142.29 156.214 128.79 158.484 125.43C160.514 122.44 164.494 120.42 166.814 117.98C167.046 117.735 167.174 117.413 167.174 117.08C167.168 113.273 167.208 109.503 167.294 105.77C167.348 103.33 168.391 100.16 170.424 96.2599ZM101.344 219.86C99.7643 217.92 98.8143 215.45 95.9243 214.34C95.6176 214.22 95.3209 214.233 95.0342 214.38C93.1542 215.327 92.2043 216.41 92.1843 217.63C92.0843 224.877 91.9342 231.93 91.7343 238.79C91.7004 239.955 91.2135 241.062 90.377 241.874C89.5405 242.686 88.4202 243.14 87.2542 243.14H63.8943C63.2726 243.14 62.6588 243 62.0993 242.729C61.5397 242.458 61.049 242.064 60.6639 241.576C60.2788 241.087 60.0095 240.518 59.8762 239.911C59.7429 239.304 59.749 238.674 59.8943 238.07C60.8943 233.85 61.2542 228.99 62.1342 225.17C64.8009 213.603 68.4376 202.347 73.0443 191.4C73.4776 190.36 74.3276 188.693 75.5943 186.4C78.7243 180.74 81.3343 174.48 84.8043 169.98C86.5743 167.67 88.0443 165 89.3542 163.21C99.3842 149.48 110.114 138.86 123.614 127.05C127.434 123.71 135.524 118.28 139.924 123.77C140.771 124.817 141.194 126.34 141.194 128.34C141.208 134.687 141.194 141.033 141.154 147.38C141.141 149.373 140.458 151.097 139.104 152.55C128.884 163.503 121.838 170.87 117.964 174.65C114.391 178.143 113.051 182.233 113.944 186.92C114.214 188.33 116.024 191.46 117.104 192.54C123.704 199.093 130.321 205.623 136.954 212.13C139.524 214.65 141.164 217.02 141.194 220.89C141.241 226.637 141.238 232.377 141.184 238.11C141.171 240.117 140.744 241.68 139.904 242.8C138.104 245.213 135.538 246.26 132.204 245.94C127.224 245.47 122.234 241.49 118.584 238C112.464 232.17 106.714 226.41 101.344 219.86ZM161.524 218.45C163.444 216.923 166.548 214.777 170.834 212.01C172.761 210.763 174.898 208.203 177.244 204.33C178.214 202.74 178.794 200.1 179.094 198.21C181.374 183.88 200.474 180.69 208.604 192.05C210.711 194.997 211.688 198.593 211.534 202.84C211.394 206.727 210.464 210.493 208.744 214.14C201.604 229.3 188.184 243.95 170.914 246.89C166.074 247.717 162.158 246.637 159.164 243.65C156.384 240.87 157.164 232.06 157.244 228.37C157.338 223.95 158.764 220.643 161.524 218.45ZM268.311 213.343C272.008 217.039 274.084 222.052 274.084 227.28C274.084 232.507 272.008 237.521 268.311 241.217C264.615 244.913 259.602 246.99 254.374 246.99C249.147 246.99 244.133 244.913 240.437 241.217C236.741 237.521 234.664 232.507 234.664 227.28C234.664 222.052 236.741 217.039 240.437 213.343C244.133 209.646 249.147 207.57 254.374 207.57C259.602 207.57 264.615 209.646 268.311 213.343ZM353.447 213.288C357.12 216.961 359.184 221.944 359.184 227.14C359.184 232.335 357.12 237.318 353.447 240.992C349.773 244.666 344.79 246.73 339.594 246.73C337.022 246.73 334.474 246.223 332.098 245.239C329.721 244.254 327.561 242.811 325.742 240.992C323.923 239.173 322.48 237.013 321.495 234.637C320.511 232.26 320.004 229.712 320.004 227.14C320.004 224.567 320.511 222.02 321.495 219.643C322.48 217.266 323.923 215.107 325.742 213.288C327.561 211.469 329.721 210.026 332.098 209.041C334.474 208.057 337.022 207.55 339.594 207.55C344.79 207.55 349.773 209.614 353.447 213.288ZM521.384 272.927C527.698 275.505 532.678 280.464 535.228 286.714C536.491 289.808 537.119 293.126 537.077 296.478C537.035 299.83 536.323 303.151 534.983 306.251C533.642 309.35 531.698 312.168 529.263 314.543C526.828 316.918 523.949 318.804 520.79 320.093C514.411 322.697 507.279 322.711 500.965 320.133C494.651 317.555 489.67 312.596 487.12 306.346C485.857 303.252 485.229 299.934 485.271 296.582C485.313 293.229 486.025 289.909 487.366 286.809C488.707 283.71 490.65 280.892 493.085 278.517C495.52 276.142 498.399 274.256 501.558 272.966C507.938 270.363 515.069 270.349 521.384 272.927ZM167.174 484.89C167.224 480.95 167.704 477.57 166.054 473.87C165.995 473.735 165.907 473.614 165.797 473.516C165.686 473.418 165.556 473.344 165.414 473.3C164.464 473.01 163.764 472.56 162.754 472.55C153.821 472.503 144.884 472.387 135.944 472.2C133.664 472.153 131.721 471.81 130.114 471.17C124.034 468.748 118.589 463.037 113.494 457.692L113.444 457.64C104.431 448.167 97.5876 440.34 92.9142 434.16C90.2742 430.667 86.3643 424.657 81.1843 416.13C72.0443 401.077 65.7709 384.9 62.3643 367.6C61.5042 363.24 60.6442 359.7 61.1742 355.17C61.2076 354.863 61.3176 354.587 61.5042 354.34C62.5776 352.9 63.5743 352.18 64.4943 352.18C72.4943 352.167 80.4176 352.16 88.2642 352.16C89.2205 352.16 90.1392 352.532 90.8246 353.199C91.5101 353.866 91.9082 354.774 91.9343 355.73C92.0943 361.3 90.9542 373.46 96.4242 376.69C96.7309 376.87 97.0143 376.84 97.2743 376.6C98.8009 375.187 100.634 373.047 102.774 370.18C116.934 351.27 140.674 340.09 164.444 343.92C179.914 346.41 193.584 355.57 203.294 367.81C207.648 373.297 210.498 379.497 211.844 386.41C213.804 396.49 208.094 406.51 197.694 408.1C189.264 409.38 181.374 404.01 179.534 395.65C178.828 392.45 178.348 390.55 178.094 389.95C174.834 382.337 169.018 377.43 160.644 375.23C158.144 374.58 149.954 374.45 145.614 375.88C144.334 376.3 143.104 376.29 141.904 376.88C138.324 378.62 135.491 380.6 133.404 382.82C128.158 388.407 122.901 393.98 117.634 399.54C110.164 407.43 113.374 414.64 120.334 421.27C125.868 426.543 131.378 431.843 136.864 437.17C137.984 438.27 139.324 438.95 140.634 439.85C140.908 440.043 141.211 440.14 141.544 440.14C149.658 440.113 157.764 440.123 165.864 440.17C171.864 440.203 176.368 440.707 179.374 441.68C191.014 445.44 198.404 456.18 197.964 468.51C197.964 468.523 197.864 469.587 197.664 471.7C197.094 477.81 200.414 484.95 207.194 485.45C219.214 486.34 231.184 486.09 243.144 486.11C243.292 486.11 243.438 486.081 243.574 486.024C243.71 485.968 243.833 485.885 243.936 485.781C244.04 485.676 244.121 485.553 244.176 485.417C244.23 485.281 244.257 485.136 244.254 484.99C244.184 480.97 243.804 476.44 245.204 472.84C250.034 460.41 268.484 458.89 274.194 471.4C275.664 474.6 275.654 479.98 275.624 483.65C275.524 498.563 275.454 513.473 275.414 528.38C275.404 531.43 275.604 535.25 273.934 538.15C268.204 548.11 253.204 548.79 246.694 539.21C243.594 534.65 244.734 526.67 244.804 520.37C244.834 518.12 242.604 517.36 240.574 517.36C228.281 517.367 215.991 517.297 203.704 517.15C200.191 517.11 195.638 515.827 190.044 513.3C180.758 509.1 174.034 502.343 169.874 493.03C168.054 488.95 167.154 486.237 167.174 484.89ZM495.014 374.33C495.841 375.363 496.534 376.013 497.094 376.28C497.675 376.564 498.332 376.632 498.926 376.469C499.52 376.307 500.003 375.927 500.274 375.41C503.214 369.79 502.424 361.29 502.364 355.28C502.36 354.866 502.438 354.456 502.594 354.073C502.749 353.69 502.979 353.341 503.27 353.047C503.561 352.753 503.908 352.52 504.289 352.361C504.671 352.202 505.081 352.12 505.494 352.12C513.094 352.12 520.914 352.13 528.954 352.15C532.374 352.16 534.314 353.92 533.844 357.36C528.154 398.86 505.064 435.1 474.564 463.23C472.091 465.51 470.031 467.287 468.384 468.56C463.814 472.09 452.474 474.36 452.424 465.48C452.394 457.81 452.224 450.22 453.114 442.58C453.174 442.093 453.378 441.677 453.724 441.33C461.564 433.63 469.264 426.06 476.754 418.01C482.114 412.24 481.344 404.35 476.264 398.85C472.431 394.683 466.338 388.55 457.984 380.45C447.614 370.4 423.024 373.7 416.884 387.48C415.818 389.86 415.261 391.49 415.214 392.37C414.484 405.15 399.884 412.75 389.354 405.65C386.394 403.643 384.184 400.887 382.724 397.38C382.294 396.34 381.374 392.49 381.464 391.22C382.074 382.07 385.864 374.86 391.794 367.44C404.694 351.31 423.464 341.63 444.114 343.31C467.014 345.18 481.244 357.17 495.014 374.33ZM366.867 448.001C364.699 449.399 362.277 450.351 359.74 450.803C357.203 451.255 354.602 451.197 352.084 450.634C349.565 450.071 347.18 449.013 345.064 447.521C342.947 446.028 341.141 444.13 339.749 441.936C338.356 439.741 337.405 437.293 336.948 434.731C336.492 432.168 336.539 429.542 337.088 427.001C337.637 424.461 338.677 422.057 340.148 419.925C341.619 417.794 343.492 415.977 345.661 414.579C347.83 413.181 350.252 412.229 352.788 411.777C355.325 411.325 357.927 411.382 360.445 411.946C362.963 412.509 365.349 413.567 367.465 415.059C369.581 416.552 371.387 418.449 372.78 420.644C374.172 422.838 375.124 425.287 375.58 427.849C376.037 430.412 375.989 433.038 375.44 435.578C374.891 438.119 373.851 440.523 372.381 442.655C370.91 444.786 369.036 446.603 366.867 448.001ZM251.392 417.372C255.107 421.087 257.194 426.126 257.194 431.38C257.194 436.634 255.107 441.673 251.392 445.388C247.677 449.103 242.638 451.19 237.384 451.19C234.783 451.19 232.207 450.677 229.803 449.682C227.4 448.686 225.216 447.227 223.376 445.388C221.537 443.548 220.078 441.364 219.082 438.961C218.087 436.557 217.574 433.981 217.574 431.38C217.574 428.778 218.087 426.202 219.082 423.799C220.078 421.395 221.537 419.212 223.376 417.372C225.216 415.533 227.4 414.073 229.803 413.078C232.207 412.082 234.783 411.57 237.384 411.57C242.638 411.57 247.677 413.657 251.392 417.372ZM350.433 518.224C349.812 518.822 349.45 519.639 349.424 520.5C349.324 524.033 349.318 527.91 349.404 532.13C349.584 540.64 341.524 546.54 333.544 546.13C324.904 545.69 318.824 539.36 318.554 530.64C318.294 521.993 318.201 505.78 318.274 482C318.288 476.773 318.774 473.103 319.734 470.99C322.444 465.03 329.334 462.09 335.784 462.83C338.018 463.083 340.121 463.83 342.094 465.07C348.554 469.11 351.078 475.347 349.664 483.78C349.619 484.042 349.632 484.311 349.701 484.568C349.771 484.825 349.896 485.064 350.067 485.268C350.239 485.472 350.453 485.635 350.694 485.748C350.935 485.861 351.198 485.919 351.464 485.92C361.591 485.98 371.661 486.033 381.674 486.08C385.468 486.1 388.254 485.673 390.034 484.8C398.374 480.72 395.774 472.39 396.244 464.88C396.504 460.66 397.954 456.12 400.324 452.49C408.274 440.31 425.884 435.24 435.854 448.49C436.024 448.719 436.125 448.996 436.144 449.29C436.451 454.463 436.478 459.62 436.224 464.76C435.834 472.45 426.994 471.86 427.244 477.61C428.134 498.25 411.584 512.78 392.484 516.47C389.611 517.023 387.601 517.303 386.454 517.31C375.194 517.377 363.958 517.373 352.744 517.3C351.883 517.294 351.053 517.626 350.433 518.224Z" fill="rgb(222, 204, 180)"/>
</svg>
